<?xml version="1.0" encoding="UTF-8"?>
<svg width="826px" height="95px" viewBox="0 0 826 95" version="1.1" xmlns="http://www.w3.org/2000/svg" xmlns:xlink="http://www.w3.org/1999/xlink">
    <title>Group 2</title>
    <g id="Page-5" stroke="none" stroke-width="1" fill="none" fill-rule="evenodd">
        <g id="Group-2" transform="translate(0.558285, 0.645658)" fill-rule="nonzero">
            <polygon id="Path" stroke="#000000" stroke-width="0.5" fill="#DCE4E6" points="59.3501133 72.9812672 59.3501133 77.0599314 45.2001721 77.3096455 45.4502038 80.3709558 27.0404635 83.6912289 27.8924233 78.2067667 21.2341722 78.1882693 21.2341722 73.6841663"></polygon>
            <line x1="65.230488" y1="79.8252842" x2="22.984394" y2="79.8252842" id="Path" fill="#FFF206"></line>
            <polygon id="Path" stroke="#000000" stroke-width="0.5" fill="#DCE4E6" points="284.239722 72.9072779 284.239722 76.9951907 270.089781 77.2449048 270.339812 80.3062151 251.930072 83.6172395 252.782032 78.1327773 246.123781 78.1235286 246.123781 73.6101769"></polygon>
            <line x1="290.120096" y1="79.7605435" x2="247.864742" y2="79.7605435" id="Path" fill="#FFF206"></line>
            <polygon id="Path" stroke="#000000" stroke-width="0.5" fill="#DCE4E6" points="579.453056 72.9072779 579.453056 76.9951907 565.303115 77.2449048 565.553147 80.3062151 547.143406 83.6172395 547.995366 78.1327773 541.337115 78.1235286 541.337115 73.6101769"></polygon>
            <line x1="594.714249" y1="79.7605435" x2="534.465874" y2="79.7605435" id="Path" fill="#C80000"></line>
            <line x1="585.333431" y1="79.7605435" x2="543.078076" y2="79.7605435" id="Path" fill="#FFF206"></line>
            <polygon id="Path" stroke="#000000" stroke-width="0.5" fill="#DCE4E6" points="806.750377 72.9072779 806.750377 76.9951907 792.591175 77.2449048 792.850468 80.3062151 774.440727 83.6172395 775.292687 78.1327773 768.634436 78.1235286 768.634436 73.6101769"></polygon>
            <line x1="822.00231" y1="79.7605435" x2="761.763195" y2="79.7605435" id="Path" fill="#C80000"></line>
            <line x1="812.621491" y1="79.7605435" x2="770.375397" y2="79.7605435" id="Path" fill="#FFF206"></line>
            <polygon id="Path" stroke="#000000" stroke-width="0.5" fill="#4A4A4A" points="0 25.1008946 8.48255637 25.1008946 17.7522495 19.5331943 60.4613652 19.5331943 69.3884223 24.8141858 233.242519 24.8141858 242.521472 19.5331943 284.110076 19.5331943 293.490894 24.6847044 527.75206 24.3240062 536.706899 19.5331943 578.952993 19.5331943 588.435676 24.5367256 755.549445 23.7875832 764.64319 19.5331943 806.898544 19.5331943 816.325665 24.666207 824.511887 25.9425237 824.511887 68.2829421 816.279362 68.7453757 807.398607 74.2575839 764.726533 73.5084415 755.799476 68.1257147 588.213426 68.4401695 578.952993 74.3500706 536.706899 74.3500706 528.085436 68.1257147 293.490894 68.7176296 284.406409 74.3500706 241.863982 74.3500706 233.242519 68.1257147 69.4069432 68.4401695 61.1373768 74.3500706 18.2245316 74.3500706 9.50120396 68.5049102 0 68.4494182"></polygon>
            <rect id="Rectangle" fill="#2C4985" x="346.349444" y="22.4742719" width="131.812999" height="48.9347212"></rect>
            <path d="M392.475659,19.7274164 L429.609994,19.7274164 C429.609994,19.7274164 445.926877,30.5391135 445.926877,45.6884375 C445.926877,67.1361068 429.258098,74.1558485 429.258098,74.1558485 L393.864724,74.1558485 C393.864724,74.1558485 378.594271,64.8516849 378.594271,46.9370081 C378.594271,33.2397256 392.475659,19.7274164 392.475659,19.7274164 Z" id="Path" fill="#2F3130"></path>
            <ellipse id="Oval" stroke="#2C4985" stroke-width="1.5" fill="#000000" cx="412.255944" cy="46.9370081" rx="13.8350865" ry="13.8175153"></ellipse>
            <rect id="Rectangle" stroke="#000000" stroke-width="0.5" fill="#000000" x="536.73468" y="31.7969328" width="48.1912918" height="27.117105" rx="1.99875"></rect>
            <rect id="Rectangle" stroke="#000000" stroke-width="0.5" fill="#000000" x="764.032001" y="33.3877043" width="48.1912918" height="27.117105" rx="1.99875"></rect>
            <rect id="Rectangle" stroke="#000000" stroke-width="0.5" fill="#000000" x="241.521346" y="33.3877043" width="48.1912918" height="27.117105" rx="1.99875"></rect>
            <rect id="Rectangle" stroke="#000000" stroke-width="0.5" fill="#000000" x="18.0485834" y="33.3877043" width="48.1912918" height="27.117105" rx="1.99875"></rect>
            <path d="M404.523482,74.0078698 L419.997665,74.0078698 L419.997665,85.6334499 C419.997665,87.6816216 419.182998,89.6459055 417.73288,91.0941816 C416.282762,92.5424576 414.31598,93.3560907 412.265204,93.3560907 L412.265204,93.3560907 C407.994683,93.3560907 404.532743,89.8985466 404.532743,85.6334499 L404.532743,74.0078698 L404.523482,74.0078698 Z" id="Path" fill="#A56D23"></path>
            <path d="M404.514222,0 L419.988405,0 L419.988405,11.6440775 C419.988405,13.6922492 419.173737,15.656533 417.723619,17.1048091 C416.273502,18.5530852 414.30672,19.3667182 412.255944,19.3667182 L412.255944,19.3667182 C407.985423,19.3667182 404.523482,15.9091742 404.523482,11.6440775 L404.523482,0 L404.514222,0 Z" id="Path" fill="#A56D23" transform="translate(412.251313, 9.683359) rotate(180.000000) translate(-412.251313, -9.683359) "></path>
            <polygon id="Path" stroke="#000000" stroke-width="0.5" fill="#DCE4E6" points="19.1598353 19.7274164 19.1598353 15.6487523 33.3097765 15.3990381 33.0597448 12.3377279 51.4602246 9.01745476 50.6175252 14.501917 57.2757763 14.5204143 57.2757763 19.0245174"></polygon>
            <polygon id="Path" stroke="#000000" stroke-width="0.5" fill="#DCE4E6" points="244.234652 19.7921571 244.234652 15.713493 258.384594 15.4637788 258.125301 12.4024686 276.535042 9.09144414 275.692342 14.5759064 282.350593 14.585155 282.350593 19.0985068"></polygon>
            <polygon id="Path" stroke="#000000" stroke-width="0.5" fill="#DCE4E6" points="537.79963 19.7921571 537.79963 15.713493 551.958831 15.4637788 551.699539 12.4024686 570.10928 9.09144414 569.25732 14.5759064 575.915571 14.585155 575.915571 19.0985068"></polygon>
            <polygon id="Path" stroke="#000000" stroke-width="0.5" fill="#DCE4E6" points="768.2918 19.8661465 768.2918 15.7782337 782.451002 15.5285195 782.19171 12.4672093 800.60145 9.15618484 799.74949 14.6406471 806.407741 14.6498957 806.407741 19.1632475"></polygon>
        </g>
    </g>
</svg>