<?xml version="1.0" encoding="utf-8"?>
<!-- Generator: Adobe Illustrator 25.4.1, SVG Export Plug-In . SVG Version: 6.00 Build 0)  -->
<svg version="1.1" id="Layer_1" focusable="false" xmlns="http://www.w3.org/2000/svg" xmlns:xlink="http://www.w3.org/1999/xlink"
	 x="0px" y="0px" viewBox="0 0 100 60" style="enable-background:new 0 0 100 60;" xml:space="preserve">
<style type="text/css">
	.st0{fill:#FFFFFF;}
	.st1{fill-rule:evenodd;clip-rule:evenodd;fill:#D2D2D2;}
	.st2{fill:#0078D4;}
	.st3{fill:#D2D2D2;}
</style>
<g>
	<path class="st0" d="M0,4c0-2.2,1.8-4,4-4h92c2.2,0,4,1.8,4,4v52c0,2.2-1.8,4-4,4H4c-2.2,0-4-1.8-4-4V4z"/>
	<path class="st1" d="M96,1H4C2.3,1,1,2.3,1,4v52c0,1.7,1.3,3,3,3h92c1.7,0,3-1.3,3-3V4C99,2.3,97.7,1,96,1z M4,0C1.8,0,0,1.8,0,4
		v52c0,2.2,1.8,4,4,4h92c2.2,0,4-1.8,4-4V4c0-2.2-1.8-4-4-4H4z"/>
	<path class="st2" d="M0,4c0-2.2,1.8-4,4-4h92c2.2,0,4,1.8,4,4v8H0V4z"/>
	<path class="st3" d="M18,22h10v10H18V22z M18,34h10v3H18V34z M54,22h10v10H54V22z M54,34h10v3H54V34z M72,22h10v10H72V22z M72,34
		h10v3H72V34z M36,22h10v10H36V22z M36,34h10v3H36V34z M18,42h64v3H18V42z M18,47h64v3H18V47z"/>
</g>
</svg>
