<svg id="Layer_1" data-name="Layer 1" xmlns="http://www.w3.org/2000/svg" viewBox="0 0 100 60"><defs><style>.cls-1{fill:#1b1a19;}.cls-2{fill:#3b3a39;}.cls-3{fill:#d2d2d2;}.cls-4{fill:#787878;fill-rule:evenodd;}</style></defs><path class="cls-1" d="M0,4A4,4,0,0,1,4,0H96a4,4,0,0,1,4,4V56a4,4,0,0,1-4,4H4a4,4,0,0,1-4-4Z"/><path class="cls-2" d="M0,4A4,4,0,0,1,4,0H96a4,4,0,0,1,4,4v8H0Z"/><path class="cls-3" d="M18,22H28V32H18Zm0,12H28v3H18ZM54,22H64V32H54Zm0,12H64v3H54ZM72,22H82V32H72Zm0,12H82v3H72ZM36,22H46V32H36Zm0,12H46v3H36ZM18,42H82v3H18Zm0,5H82v3H18Z"/><path class="cls-4" d="M96,1H4A3,3,0,0,0,1,4V56a3,3,0,0,0,3,3H96a3,3,0,0,0,3-3V4A3,3,0,0,0,96,1ZM4,0A4,4,0,0,0,0,4V56a4,4,0,0,0,4,4H96a4,4,0,0,0,4-4V4a4,4,0,0,0-4-4Z"/></svg>